<!DOCTYPE svg PUBLIC "-//W3C//DTD SVG 1.1//EN" "http://www.w3.org/Graphics/SVG/1.1/DTD/svg11.dtd">
<!-- Uploaded to: SVG Repo, www.svgrepo.com, Transformed by: SVG Repo Mixer Tools -->
<svg width="800px" height="800px" viewBox="0 0 26 26" xmlns="http://www.w3.org/2000/svg" fill="#000000">
<g id="SVGRepo_bgCarrier" stroke-width="0"/>
<g id="SVGRepo_tracerCarrier" stroke-linecap="round" stroke-linejoin="round"/>
<g id="SVGRepo_iconCarrier"> <g id="Group_710" data-name="Group 710" transform="translate(-200 -100)"> <path id="Path_1492" data-name="Path 1492" d="M224,126h-5v-2h5v-5h2v5A2.006,2.006,0,0,1,224,126Zm-4-4H208a1,1,0,0,1,0-2h12V106H206v11a1,1,0,0,1-2,0V106a2.006,2.006,0,0,1,2-2h14a2.006,2.006,0,0,1,2,2v14A2.006,2.006,0,0,1,220,122Zm-18-20v5h-2v-5a2.006,2.006,0,0,1,2-2h5v2Z" fill="#fff"/> </g> </g>
</svg>