<!DOCTYPE svg PUBLIC "-//W3C//DTD SVG 1.1//EN" "http://www.w3.org/Graphics/SVG/1.1/DTD/svg11.dtd">
<!-- Uploaded to: SVG Repo, www.svgrepo.com, Transformed by: SVG Repo Mixer Tools -->
<svg fill="#000000" width="800px" height="800px" viewBox="-2 -2 24.00 24.00" xmlns="http://www.w3.org/2000/svg">
<g id="SVGRepo_bgCarrier" stroke-width="0">
<rect x="-2" y="-2" width="24.00" height="24.00" rx="12" fill="#fff" strokewidth="0"/>
</g>
<g id="SVGRepo_tracerCarrier" stroke-linecap="round" stroke-linejoin="round"/>
<g id="SVGRepo_iconCarrier">
<path d="M15 3h-2c-.553 0-1 .048-1 .6v12.8c0 .552.447.6 1 .6h2c.553 0 1-.048 1-.6V3.6c0-.552-.447-.6-1-.6zM7 3H5c-.553 0-1 .048-1 .6v12.8c0 .552.447.6 1 .6h2c.553 0 1-.048 1-.6V3.6c0-.552-.447-.6-1-.6z"/>
</g>
</svg>